<?xml version="1.0" standalone="no"?><!DOCTYPE svg PUBLIC "-//W3C//DTD SVG 1.1//EN" "http://www.w3.org/Graphics/SVG/1.1/DTD/svg11.dtd"><svg t="1623644658420" class="icon" viewBox="0 0 1024 1024" version="1.1" xmlns="http://www.w3.org/2000/svg" p-id="1333" xmlns:xlink="http://www.w3.org/1999/xlink" width="200" height="200"><defs><style type="text/css"></style></defs><path d="M663.136 851.328l-130.816-308.128c-52.128 101.696-109.344 208.48-158.4 308.128-0.512 0.512-24 0-24 0-75.136-176.32-152.8-350.016-228.416-524.8-17.376-42.88-78.72-111.36-121.12-111.36v-23.008h258.56v23.008c-30.656 0-82.784 20.416-69.472 53.632 36.8 78.72 165.536 383.744 200.8 461.44 24-48.064 91.968-174.784 121.12-228.416-23.008-44.992-95.552-213.6-117.024-255.488-16.352-27.616-57.76-31.168-89.44-31.168 0-7.68 0.512-12.8 0-22.496l227.904 0.512v20.448c-31.168 1.536-60.288 12.256-47.008 41.888 30.656 63.36 48.544 108.832 76.64 167.616 8.704-17.376 54.688-111.904 76.672-161.472 13.28-33.216-6.656-46.496-61.856-46.496 0.512-6.144 0.512-16.864 0.512-21.984 71.04-0.512 177.824-0.512 196.736-1.024v21.44c-36.288 1.568-73.6 20.96-92.992 50.592l-93.504 196.224c9.184 26.08 100.16 227.904 109.856 250.4l196.736-451.2c-15.36-36.8-59.296-44.48-76.672-44.48v-22.976l204.416 1.536v21.472c-44.992 0-73.088 25.536-89.44 63.872-40.864 91.456-166.08 382.72-247.808 572.288h-21.984z" p-id="1334"></path></svg>